<svg width="135" height="25" viewBox="0 0 135 25" fill="none" xmlns="http://www.w3.org/2000/svg">
<g id="Group 166">
<path id="XMLID_835_" d="M0.383154 13.3205H2.98714V24.151C2.98714 24.3648 3.15864 24.5381 3.3703 24.5381H7.78546C7.99711 24.5381 8.16861 24.3648 8.16861 24.151V13.3715H11.1621C11.3568 13.3715 11.5205 13.2239 11.5427 13.0286L11.9974 9.04136C12.0099 8.93166 11.9755 8.8218 11.9028 8.7395C11.8301 8.65713 11.726 8.60998 11.6168 8.60998H8.16877V6.11058C8.16877 5.35713 8.57031 4.97507 9.36237 4.97507C9.47525 4.97507 11.6168 4.97507 11.6168 4.97507C11.8285 4.97507 12 4.80172 12 4.58797V0.928047C12 0.714215 11.8285 0.54095 11.6168 0.54095H8.50985C8.48793 0.539867 8.43927 0.538086 8.36755 0.538086C7.82845 0.538086 5.9546 0.645002 4.4744 2.02074C2.83434 3.54529 3.06232 5.37068 3.1168 5.68717V8.60991H0.383154C0.1715 8.60991 0 8.78317 0 8.997V12.9333C0 13.1471 0.1715 13.3205 0.383154 13.3205Z" fill="white"/>
<g id="XMLID_504_">
<path id="XMLID_505_" d="M47.0816 0.538086H64.9198C66.6146 0.538086 68 1.92412 68 3.61897V21.4586C68 23.153 66.6146 24.5381 64.9198 24.5381H47.0816C45.3869 24.5381 44 23.1529 44 21.4586V3.61897C44 1.92412 45.3869 0.538086 47.0816 0.538086ZM61.4837 3.20366C60.8886 3.20366 60.4033 3.69098 60.4033 4.28575V6.87107C60.4033 7.46608 60.8886 7.95228 61.4837 7.95228H64.1959C64.79 7.95228 65.2764 7.46608 65.2764 6.87107V4.28575C65.2764 3.69098 64.79 3.20366 64.1959 3.20366H61.4837ZM65.2867 10.6874H63.175C63.3753 11.3414 63.4838 12.0312 63.4838 12.7483C63.4838 16.7391 60.1426 19.976 56.0226 19.976C51.9036 19.976 48.5622 16.7391 48.5622 12.7483C48.5622 12.0312 48.6718 11.3414 48.8711 10.6874H46.668V20.8267C46.668 21.3518 47.0967 21.779 47.6213 21.779H64.3338C64.8589 21.779 65.2867 21.3518 65.2867 20.8267V10.6874ZM56.0226 7.81595C53.3618 7.81595 51.2034 9.90636 51.2034 12.4874C51.2034 15.0657 53.3618 17.1577 56.0226 17.1577C58.6849 17.1577 60.8434 15.0657 60.8434 12.4874C60.8434 9.90628 58.6849 7.81595 56.0226 7.81595Z" fill="white"/>
</g>
<g id="Group">
<path id="Vector" d="M127.731 0H107.269C103.254 0 100 3.25446 100 7.26905V17.4978C100 21.5124 103.254 24.7669 107.269 24.7669H127.731C131.746 24.7669 135 21.5124 135 17.4978V7.26905C135 3.25446 131.746 0 127.731 0ZM122.815 12.8811L113.244 17.4458C112.989 17.5674 112.695 17.3814 112.695 17.0989V7.68434C112.695 7.39781 112.997 7.21211 113.253 7.34163L122.823 12.1916C123.108 12.3358 123.103 12.7438 122.815 12.8811Z" fill="white"/>
</g>
</g>
</svg>
